<svg width="179" height="31" viewBox="0 0 179 31" fill="none" xmlns="http://www.w3.org/2000/svg">
<path d="M11.3542 20.2796C11.2229 20.2798 11.0929 20.2542 10.9716 20.2041C10.8503 20.154 10.74 20.0804 10.6472 19.9876L6.40521 15.7446C6.30964 15.6524 6.23338 15.5421 6.18089 15.4201C6.12839 15.2982 6.10072 15.167 6.09947 15.0342C6.09822 14.9014 6.12343 14.7697 6.17363 14.6468C6.22382 14.5238 6.29799 14.4121 6.39182 14.3182C6.48565 14.2242 6.59724 14.1499 6.7201 14.0995C6.84296 14.0492 6.97462 14.0238 7.1074 14.0248C7.24018 14.0259 7.37142 14.0534 7.49346 14.1057C7.6155 14.158 7.7259 14.2341 7.81821 14.3296L11.3532 17.8646L17.7182 11.5016C17.9057 11.3139 18.1601 11.2085 18.4254 11.2084C18.6906 11.2083 18.9451 11.3136 19.1327 11.5011C19.3204 11.6886 19.4258 11.9429 19.4259 12.2082C19.426 12.4735 19.3207 12.7279 19.1332 12.9156L12.0612 19.9876C11.9684 20.0804 11.8582 20.154 11.7368 20.2041C11.6155 20.2542 11.4855 20.2798 11.3542 20.2796Z" fill="#2FAB73"/>
<path d="M48.0018 20.5496C47.7591 20.5496 47.6144 20.4236 47.5678 20.1716L45.7618 11.1836C45.7524 11.1369 45.7478 11.0856 45.7478 11.0296C45.7478 10.9549 45.7758 10.8896 45.8318 10.8336C45.8878 10.7776 45.9531 10.7496 46.0278 10.7496H46.7558C46.9518 10.7496 47.0638 10.8289 47.0918 10.9876L48.5198 18.2116L50.0318 13.2556C50.1158 13.0316 50.2651 12.9196 50.4798 12.9196H50.9978C51.1191 12.9196 51.2124 12.9522 51.2778 13.0176C51.3524 13.0829 51.4038 13.1622 51.4318 13.2556L52.9578 18.2116L54.3718 10.9876C54.3998 10.8289 54.5164 10.7496 54.7218 10.7496H55.4498C55.5244 10.7496 55.5898 10.7776 55.6458 10.8336C55.7018 10.8896 55.7298 10.9549 55.7298 11.0296L55.7158 11.1836L53.9098 20.1716C53.8538 20.4236 53.7091 20.5496 53.4758 20.5496H52.9298C52.6871 20.5496 52.5331 20.4329 52.4678 20.1996L50.7318 14.8656L49.0098 20.1996C48.9351 20.4329 48.7811 20.5496 48.5478 20.5496H48.0018ZM60.0599 20.6896C59.0333 20.6896 58.2353 20.4002 57.6659 19.8216C57.1059 19.2429 56.8073 18.4729 56.7699 17.5116L56.7559 16.9096L56.7699 16.3076C56.8073 15.3556 57.1106 14.5902 57.6799 14.0116C58.2493 13.4236 59.0426 13.1296 60.0599 13.1296C61.0773 13.1296 61.8706 13.4236 62.4399 14.0116C63.0093 14.5902 63.3126 15.3556 63.3499 16.3076C63.3593 16.4102 63.3639 16.6109 63.3639 16.9096C63.3639 17.2082 63.3593 17.4089 63.3499 17.5116C63.3126 18.4729 63.0093 19.2429 62.4399 19.8216C61.8799 20.4002 61.0866 20.6896 60.0599 20.6896ZM60.0599 19.6116C60.6479 19.6116 61.1099 19.4249 61.4459 19.0516C61.7913 18.6782 61.9779 18.1416 62.0059 17.4416C62.0153 17.3482 62.0199 17.1709 62.0199 16.9096C62.0199 16.6482 62.0153 16.4709 62.0059 16.3776C61.9779 15.6776 61.7913 15.1409 61.4459 14.7676C61.1099 14.3942 60.6479 14.2076 60.0599 14.2076C59.4719 14.2076 59.0053 14.3942 58.6599 14.7676C58.3146 15.1409 58.1326 15.6776 58.1139 16.3776L58.0999 16.9096L58.1139 17.4416C58.1326 18.1416 58.3146 18.6782 58.6599 19.0516C59.0053 19.4249 59.4719 19.6116 60.0599 19.6116ZM65.439 20.5496C65.3457 20.5496 65.2663 20.5216 65.201 20.4656C65.145 20.4002 65.117 20.3209 65.117 20.2276V13.6056C65.117 13.5122 65.145 13.4329 65.201 13.3676C65.2663 13.3022 65.3457 13.2696 65.439 13.2696H66.083C66.1763 13.2696 66.2557 13.3022 66.321 13.3676C66.3863 13.4329 66.419 13.5122 66.419 13.6056V14.2216C66.8017 13.5869 67.455 13.2696 68.379 13.2696H68.925C69.0183 13.2696 69.093 13.3022 69.149 13.3676C69.2143 13.4236 69.247 13.4982 69.247 13.5916V14.1656C69.247 14.2589 69.2143 14.3336 69.149 14.3896C69.093 14.4456 69.0183 14.4736 68.925 14.4736H68.085C67.581 14.4736 67.1843 14.6229 66.895 14.9216C66.6057 15.2109 66.461 15.6076 66.461 16.1116V20.2276C66.461 20.3209 66.4283 20.4002 66.363 20.4656C66.2977 20.5216 66.2183 20.5496 66.125 20.5496H65.439ZM70.7714 20.5496C70.678 20.5496 70.5987 20.5216 70.5334 20.4656C70.4774 20.4002 70.4494 20.3209 70.4494 20.2276V10.9316C70.4494 10.8382 70.4774 10.7636 70.5334 10.7076C70.5987 10.6422 70.678 10.6096 70.7714 10.6096H71.4294C71.5227 10.6096 71.5974 10.6422 71.6534 10.7076C71.7187 10.7636 71.7514 10.8382 71.7514 10.9316V15.8036L74.5094 13.5076C74.5374 13.4889 74.584 13.4516 74.6494 13.3956C74.7147 13.3489 74.7754 13.3162 74.8314 13.2976C74.8967 13.2789 74.976 13.2696 75.0694 13.2696H75.8114C75.8954 13.2696 75.9654 13.2976 76.0214 13.3536C76.0774 13.4096 76.1054 13.4796 76.1054 13.5636C76.1054 13.6662 76.0494 13.7549 75.9374 13.8296L72.7034 16.5176L76.2874 20.0036C76.3994 20.0969 76.4554 20.1809 76.4554 20.2556C76.4554 20.3396 76.4274 20.4096 76.3714 20.4656C76.3154 20.5216 76.2454 20.5496 76.1614 20.5496H75.4334C75.2934 20.5496 75.1907 20.5356 75.1254 20.5076C75.0694 20.4796 74.9854 20.4142 74.8734 20.3116L71.7514 17.3296V20.2276C71.7514 20.3209 71.7187 20.4002 71.6534 20.4656C71.5974 20.5216 71.5227 20.5496 71.4294 20.5496H70.7714ZM80.0374 20.6896C79.3841 20.6896 78.8334 20.5869 78.3854 20.3816C77.9467 20.1669 77.6154 19.9242 77.3914 19.6536C77.1767 19.3829 77.0694 19.1589 77.0694 18.9816C77.0694 18.8882 77.1021 18.8182 77.1674 18.7716C77.2421 18.7156 77.3167 18.6876 77.3914 18.6876H78.0214C78.1147 18.6876 78.1987 18.7342 78.2734 18.8276C78.4974 19.0889 78.7401 19.2942 79.0014 19.4436C79.2627 19.5929 79.6127 19.6676 80.0514 19.6676C80.5367 19.6676 80.9287 19.5742 81.2274 19.3876C81.5354 19.1916 81.6894 18.9256 81.6894 18.5896C81.6894 18.3656 81.6241 18.1836 81.4934 18.0436C81.3721 17.8942 81.1574 17.7682 80.8494 17.6656C80.5507 17.5536 80.1027 17.4322 79.5054 17.3016C78.6934 17.1242 78.1147 16.8676 77.7694 16.5316C77.4334 16.1956 77.2654 15.7616 77.2654 15.2296C77.2654 14.8749 77.3681 14.5389 77.5734 14.2216C77.7881 13.8949 78.0961 13.6336 78.4974 13.4376C78.9081 13.2322 79.3981 13.1296 79.9674 13.1296C80.5647 13.1296 81.0734 13.2276 81.4934 13.4236C81.9134 13.6196 82.2261 13.8529 82.4314 14.1236C82.6461 14.3849 82.7534 14.6042 82.7534 14.7816C82.7534 14.8656 82.7207 14.9356 82.6554 14.9916C82.5994 15.0476 82.5294 15.0756 82.4454 15.0756H81.8574C81.7454 15.0756 81.6521 15.0289 81.5774 14.9356C81.4281 14.7582 81.2974 14.6229 81.1854 14.5296C81.0827 14.4269 80.9287 14.3382 80.7234 14.2636C80.5274 14.1889 80.2754 14.1516 79.9674 14.1516C79.5194 14.1516 79.1741 14.2496 78.9314 14.4456C78.6887 14.6322 78.5674 14.8796 78.5674 15.1876C78.5674 15.3836 78.6187 15.5516 78.7214 15.6916C78.8241 15.8222 79.0201 15.9436 79.3094 16.0556C79.6081 16.1676 80.0374 16.2842 80.5974 16.4056C81.4841 16.5922 82.1094 16.8629 82.4734 17.2176C82.8467 17.5629 83.0334 18.0062 83.0334 18.5476C83.0334 18.9489 82.9167 19.3129 82.6834 19.6396C82.4501 19.9662 82.1047 20.2229 81.6474 20.4096C81.1994 20.5962 80.6627 20.6896 80.0374 20.6896ZM91.0677 20.6896C90.0411 20.6896 89.2431 20.4002 88.6737 19.8216C88.1137 19.2429 87.8151 18.4729 87.7777 17.5116L87.7637 16.9096L87.7777 16.3076C87.8151 15.3556 88.1184 14.5902 88.6877 14.0116C89.2571 13.4236 90.0504 13.1296 91.0677 13.1296C92.0851 13.1296 92.8784 13.4236 93.4477 14.0116C94.0171 14.5902 94.3204 15.3556 94.3577 16.3076C94.3671 16.4102 94.3717 16.6109 94.3717 16.9096C94.3717 17.2082 94.3671 17.4089 94.3577 17.5116C94.3204 18.4729 94.0171 19.2429 93.4477 19.8216C92.8877 20.4002 92.0944 20.6896 91.0677 20.6896ZM91.0677 19.6116C91.6557 19.6116 92.1177 19.4249 92.4537 19.0516C92.7991 18.6782 92.9857 18.1416 93.0137 17.4416C93.0231 17.3482 93.0277 17.1709 93.0277 16.9096C93.0277 16.6482 93.0231 16.4709 93.0137 16.3776C92.9857 15.6776 92.7991 15.1409 92.4537 14.7676C92.1177 14.3942 91.6557 14.2076 91.0677 14.2076C90.4797 14.2076 90.0131 14.3942 89.6677 14.7676C89.3224 15.1409 89.1404 15.6776 89.1217 16.3776L89.1077 16.9096L89.1217 17.4416C89.1404 18.1416 89.3224 18.6782 89.6677 19.0516C90.0131 19.4249 90.4797 19.6116 91.0677 19.6116ZM96.4468 20.5496C96.3535 20.5496 96.2741 20.5216 96.2088 20.4656C96.1528 20.4002 96.1248 20.3209 96.1248 20.2276V13.5916C96.1248 13.4982 96.1528 13.4236 96.2088 13.3676C96.2741 13.3022 96.3535 13.2696 96.4468 13.2696H97.1048C97.1981 13.2696 97.2728 13.3022 97.3288 13.3676C97.3941 13.4236 97.4268 13.4982 97.4268 13.5916V14.2076C97.6975 13.8622 98.0148 13.5962 98.3788 13.4096C98.7521 13.2229 99.2141 13.1296 99.7648 13.1296C100.661 13.1296 101.356 13.4189 101.851 13.9976C102.355 14.5669 102.607 15.3276 102.607 16.2796V20.2276C102.607 20.3209 102.574 20.4002 102.509 20.4656C102.453 20.5216 102.378 20.5496 102.285 20.5496H101.585C101.491 20.5496 101.412 20.5216 101.347 20.4656C101.291 20.4002 101.263 20.3209 101.263 20.2276V16.3496C101.263 15.6869 101.099 15.1736 100.773 14.8096C100.455 14.4456 99.9935 14.2636 99.3868 14.2636C98.7988 14.2636 98.3321 14.4502 97.9868 14.8236C97.6415 15.1876 97.4688 15.6962 97.4688 16.3496V20.2276C97.4688 20.3209 97.4361 20.4002 97.3708 20.4656C97.3148 20.5216 97.2401 20.5496 97.1468 20.5496H96.4468ZM107.202 20.5496C107.127 20.5496 107.062 20.5216 107.006 20.4656C106.95 20.4096 106.922 20.3442 106.922 20.2696C106.922 20.1949 106.926 20.1436 106.936 20.1156L110.408 11.0576C110.482 10.8522 110.632 10.7496 110.856 10.7496H111.808C112.032 10.7496 112.181 10.8522 112.256 11.0576L115.714 20.1156L115.742 20.2696C115.742 20.3442 115.714 20.4096 115.658 20.4656C115.602 20.5216 115.536 20.5496 115.462 20.5496H114.748C114.645 20.5496 114.566 20.5262 114.51 20.4796C114.454 20.4236 114.416 20.3676 114.398 20.3116L113.628 18.3236H109.036L108.266 20.3116C108.247 20.3676 108.205 20.4236 108.14 20.4796C108.084 20.5262 108.009 20.5496 107.916 20.5496H107.202ZM113.222 17.1196L111.332 12.1496L109.442 17.1196H113.222ZM117.392 20.5496C117.299 20.5496 117.22 20.5216 117.154 20.4656C117.098 20.4002 117.07 20.3209 117.07 20.2276V10.9316C117.07 10.8382 117.098 10.7636 117.154 10.7076C117.22 10.6422 117.299 10.6096 117.392 10.6096H118.05C118.144 10.6096 118.218 10.6422 118.274 10.7076C118.34 10.7636 118.372 10.8382 118.372 10.9316V20.2276C118.372 20.3209 118.34 20.4002 118.274 20.4656C118.218 20.5216 118.144 20.5496 118.05 20.5496H117.392ZM120.797 20.5496C120.703 20.5496 120.624 20.5216 120.559 20.4656C120.503 20.4002 120.475 20.3209 120.475 20.2276V10.9316C120.475 10.8382 120.503 10.7636 120.559 10.7076C120.624 10.6422 120.703 10.6096 120.797 10.6096H121.455C121.548 10.6096 121.623 10.6422 121.679 10.7076C121.744 10.7636 121.777 10.8382 121.777 10.9316V20.2276C121.777 20.3209 121.744 20.4002 121.679 20.4656C121.623 20.5216 121.548 20.5496 121.455 20.5496H120.797ZM127.801 20.5496C127.707 20.5496 127.628 20.5216 127.563 20.4656C127.507 20.4002 127.479 20.3209 127.479 20.2276V11.0856C127.479 10.9829 127.507 10.9036 127.563 10.8476C127.628 10.7822 127.707 10.7496 127.801 10.7496H130.979C132.388 10.7496 133.405 11.0669 134.031 11.7016C134.656 12.3269 134.983 13.2742 135.011 14.5436C135.02 14.8142 135.025 15.1782 135.025 15.6356C135.025 16.0929 135.02 16.4616 135.011 16.7416C134.983 17.6282 134.833 18.3516 134.563 18.9116C134.301 19.4622 133.886 19.8729 133.317 20.1436C132.747 20.4142 131.991 20.5496 131.049 20.5496H127.801ZM130.979 19.3596C131.623 19.3596 132.131 19.2709 132.505 19.0936C132.887 18.9162 133.163 18.6362 133.331 18.2536C133.508 17.8616 133.606 17.3389 133.625 16.6856C133.643 16.1256 133.653 15.7756 133.653 15.6356C133.653 15.4862 133.643 15.1409 133.625 14.5996C133.606 13.6756 133.387 13.0036 132.967 12.5836C132.547 12.1542 131.861 11.9396 130.909 11.9396H128.851V19.3596H130.979ZM139.861 20.6896C138.9 20.6896 138.13 20.3956 137.551 19.8076C136.982 19.2102 136.669 18.3982 136.613 17.3716L136.599 16.8956L136.613 16.4336C136.678 15.4256 136.996 14.6229 137.565 14.0256C138.144 13.4282 138.904 13.1296 139.847 13.1296C140.883 13.1296 141.686 13.4609 142.255 14.1236C142.824 14.7769 143.109 15.6636 143.109 16.7836V17.0216C143.109 17.1149 143.076 17.1942 143.011 17.2596C142.955 17.3156 142.88 17.3436 142.787 17.3436H137.943V17.4696C137.971 18.0762 138.153 18.5942 138.489 19.0236C138.834 19.4436 139.287 19.6536 139.847 19.6536C140.276 19.6536 140.626 19.5696 140.897 19.4016C141.177 19.2242 141.382 19.0422 141.513 18.8556C141.597 18.7436 141.658 18.6782 141.695 18.6596C141.742 18.6316 141.821 18.6176 141.933 18.6176H142.619C142.703 18.6176 142.773 18.6409 142.829 18.6876C142.885 18.7342 142.913 18.7996 142.913 18.8836C142.913 19.0889 142.782 19.3362 142.521 19.6256C142.269 19.9149 141.91 20.1669 141.443 20.3816C140.986 20.5869 140.458 20.6896 139.861 20.6896ZM141.779 16.3776V16.3356C141.779 15.6916 141.602 15.1689 141.247 14.7676C140.902 14.3569 140.435 14.1516 139.847 14.1516C139.259 14.1516 138.792 14.3569 138.447 14.7676C138.111 15.1689 137.943 15.6916 137.943 16.3356V16.3776H141.779ZM147.071 20.5496C146.828 20.5496 146.656 20.4329 146.553 20.1996L143.963 13.7036L143.935 13.5636C143.935 13.4796 143.963 13.4096 144.019 13.3536C144.075 13.2976 144.145 13.2696 144.229 13.2696H144.901C145.06 13.2696 145.176 13.3489 145.251 13.5076L147.379 19.0236L149.507 13.5076C149.591 13.3489 149.703 13.2696 149.843 13.2696H150.529C150.604 13.2696 150.669 13.2976 150.725 13.3536C150.79 13.4096 150.823 13.4796 150.823 13.5636L150.795 13.7036L148.191 20.1996C148.088 20.4329 147.916 20.5496 147.673 20.5496H147.071ZM152.499 11.9116C152.406 11.9116 152.326 11.8836 152.261 11.8276C152.205 11.7622 152.177 11.6829 152.177 11.5896V10.8336C152.177 10.7402 152.205 10.6609 152.261 10.5956C152.326 10.5302 152.406 10.4976 152.499 10.4976H153.381C153.474 10.4976 153.554 10.5302 153.619 10.5956C153.684 10.6609 153.717 10.7402 153.717 10.8336V11.5896C153.717 11.6829 153.684 11.7622 153.619 11.8276C153.554 11.8836 153.474 11.9116 153.381 11.9116H152.499ZM152.611 20.5496C152.518 20.5496 152.438 20.5216 152.373 20.4656C152.317 20.4002 152.289 20.3209 152.289 20.2276V13.5916C152.289 13.4982 152.317 13.4236 152.373 13.3676C152.438 13.3022 152.518 13.2696 152.611 13.2696H153.283C153.376 13.2696 153.451 13.3022 153.507 13.3676C153.572 13.4236 153.605 13.4982 153.605 13.5916V20.2276C153.605 20.3209 153.572 20.4002 153.507 20.4656C153.451 20.5216 153.376 20.5496 153.283 20.5496H152.611ZM158.619 20.6896C157.621 20.6896 156.837 20.4096 156.267 19.8496C155.707 19.2802 155.409 18.4869 155.371 17.4696L155.357 16.9096L155.371 16.3496C155.409 15.3322 155.707 14.5436 156.267 13.9836C156.837 13.4142 157.621 13.1296 158.619 13.1296C159.291 13.1296 159.861 13.2509 160.327 13.4936C160.794 13.7362 161.139 14.0349 161.363 14.3896C161.597 14.7442 161.723 15.0989 161.741 15.4536C161.751 15.5469 161.723 15.6216 161.657 15.6776C161.592 15.7336 161.513 15.7616 161.419 15.7616H160.747C160.654 15.7616 160.584 15.7429 160.537 15.7056C160.491 15.6682 160.444 15.5936 160.397 15.4816C160.239 15.0336 160.015 14.7162 159.725 14.5296C159.436 14.3336 159.072 14.2356 158.633 14.2356C158.055 14.2356 157.593 14.4176 157.247 14.7816C156.911 15.1362 156.729 15.6822 156.701 16.4196L156.687 16.9236L156.701 17.3996C156.729 18.1462 156.911 18.6969 157.247 19.0516C157.583 19.4062 158.045 19.5836 158.633 19.5836C159.072 19.5836 159.436 19.4902 159.725 19.3036C160.015 19.1076 160.239 18.7856 160.397 18.3376C160.444 18.2256 160.491 18.1509 160.537 18.1136C160.584 18.0669 160.654 18.0436 160.747 18.0436H161.419C161.513 18.0436 161.592 18.0762 161.657 18.1416C161.723 18.1976 161.751 18.2722 161.741 18.3656C161.723 18.7109 161.597 19.0656 161.363 19.4296C161.139 19.7842 160.794 20.0829 160.327 20.3256C159.87 20.5682 159.301 20.6896 158.619 20.6896ZM166.316 20.6896C165.355 20.6896 164.585 20.3956 164.006 19.8076C163.437 19.2102 163.124 18.3982 163.068 17.3716L163.054 16.8956L163.068 16.4336C163.133 15.4256 163.451 14.6229 164.02 14.0256C164.599 13.4282 165.359 13.1296 166.302 13.1296C167.338 13.1296 168.141 13.4609 168.71 14.1236C169.279 14.7769 169.564 15.6636 169.564 16.7836V17.0216C169.564 17.1149 169.531 17.1942 169.466 17.2596C169.41 17.3156 169.335 17.3436 169.242 17.3436H164.398V17.4696C164.426 18.0762 164.608 18.5942 164.944 19.0236C165.289 19.4436 165.742 19.6536 166.302 19.6536C166.731 19.6536 167.081 19.5696 167.352 19.4016C167.632 19.2242 167.837 19.0422 167.968 18.8556C168.052 18.7436 168.113 18.6782 168.15 18.6596C168.197 18.6316 168.276 18.6176 168.388 18.6176H169.074C169.158 18.6176 169.228 18.6409 169.284 18.6876C169.34 18.7342 169.368 18.7996 169.368 18.8836C169.368 19.0889 169.237 19.3362 168.976 19.6256C168.724 19.9149 168.365 20.1669 167.898 20.3816C167.441 20.5869 166.913 20.6896 166.316 20.6896ZM168.234 16.3776V16.3356C168.234 15.6916 168.057 15.1689 167.702 14.7676C167.357 14.3569 166.89 14.1516 166.302 14.1516C165.714 14.1516 165.247 14.3569 164.902 14.7676C164.566 15.1689 164.398 15.6916 164.398 16.3356V16.3776H168.234ZM173.758 20.6896C173.105 20.6896 172.554 20.5869 172.106 20.3816C171.667 20.1669 171.336 19.9242 171.112 19.6536C170.897 19.3829 170.79 19.1589 170.79 18.9816C170.79 18.8882 170.823 18.8182 170.888 18.7716C170.963 18.7156 171.037 18.6876 171.112 18.6876H171.742C171.835 18.6876 171.919 18.7342 171.994 18.8276C172.218 19.0889 172.461 19.2942 172.722 19.4436C172.983 19.5929 173.333 19.6676 173.772 19.6676C174.257 19.6676 174.649 19.5742 174.948 19.3876C175.256 19.1916 175.41 18.9256 175.41 18.5896C175.41 18.3656 175.345 18.1836 175.214 18.0436C175.093 17.8942 174.878 17.7682 174.57 17.6656C174.271 17.5536 173.823 17.4322 173.226 17.3016C172.414 17.1242 171.835 16.8676 171.49 16.5316C171.154 16.1956 170.986 15.7616 170.986 15.2296C170.986 14.8749 171.089 14.5389 171.294 14.2216C171.509 13.8949 171.817 13.6336 172.218 13.4376C172.629 13.2322 173.119 13.1296 173.688 13.1296C174.285 13.1296 174.794 13.2276 175.214 13.4236C175.634 13.6196 175.947 13.8529 176.152 14.1236C176.367 14.3849 176.474 14.6042 176.474 14.7816C176.474 14.8656 176.441 14.9356 176.376 14.9916C176.32 15.0476 176.25 15.0756 176.166 15.0756H175.578C175.466 15.0756 175.373 15.0289 175.298 14.9356C175.149 14.7582 175.018 14.6229 174.906 14.5296C174.803 14.4269 174.649 14.3382 174.444 14.2636C174.248 14.1889 173.996 14.1516 173.688 14.1516C173.24 14.1516 172.895 14.2496 172.652 14.4456C172.409 14.6322 172.288 14.8796 172.288 15.1876C172.288 15.3836 172.339 15.5516 172.442 15.6916C172.545 15.8222 172.741 15.9436 173.03 16.0556C173.329 16.1676 173.758 16.2842 174.318 16.4056C175.205 16.5922 175.83 16.8629 176.194 17.2176C176.567 17.5629 176.754 18.0062 176.754 18.5476C176.754 18.9489 176.637 19.3129 176.404 19.6396C176.171 19.9662 175.825 20.2229 175.368 20.4096C174.92 20.5962 174.383 20.6896 173.758 20.6896Z" fill="#4F5665"/>
</svg>
